# xmcd
#
# Track frame offsets: 
#        150
#        21802
#        45222
#        61863
#        87283
#        111243
#        133875
#        156248
#        181098
#        202118
#        223884
#        242768
#
# Disc length: 3537 seconds
#
# Revision: 0
# Processed by: cddbd v1.5.2PL0 Copyright (c) Steve Scherf et al.
# Submitted via: ExactAudioCopy v1.3
#
DISCID=a60dcf0c
DTITLE=Billy Price - Dog Eat Dog
DYEAR=2019
DGENRE=Blues
TTITLE0=Working on Your Chain Gang
TTITLE1=Lose My Number
TTITLE2=We're In Love
TTITLE3=Dog Eat Dog
TTITLE4=My Love Will Never Die
TTITLE5=All Night Long Cafe
TTITLE6=Walk Back In
TTITLE7=Toxicity
TTITLE8=Remnants
TTITLE9=Same Old Heartaches
TTITLE10=More Than I Needed
TTITLE11=You Gotta Leave
EXTD=
EXTT0=
EXTT1=
EXTT2=
EXTT3=
EXTT4=
EXTT5=
EXTT6=
EXTT7=
EXTT8=
EXTT9=
EXTT10=
EXTT11=
PLAYORDER=
